<?xml version="1.0" standalone="no"?>
<!DOCTYPE svg PUBLIC "-//W3C//DTD SVG 20010904//EN"
 "http://www.w3.org/TR/2001/REC-SVG-20010904/DTD/svg10.dtd">
<svg version="1.0" xmlns="http://www.w3.org/2000/svg"
 width="700.000000pt" height="700.000000pt" viewBox="0 0 700.000000 700.000000"
 preserveAspectRatio="xMidYMid meet">
<metadata>
Created by potrace 1.11, written by Peter Selinger 2001-2013
</metadata>
<g transform="translate(0.000000,700.000000) scale(0.100000,-0.100000)"
fill="#000000" stroke="none">
<path d="M3145 6985 c-1084 -114 -2035 -708 -2617 -1632 -97 -155 -250 -464
-312 -629 -89 -242 -155 -508 -193 -784 -13 -96 -17 -197 -18 -435 0 -340 10
-453 66 -720 283 -1369 1367 -2447 2735 -2719 276 -55 346 -61 694 -61 348 0
418 6 695 61 1111 221 2066 992 2518 2034 127 292 203 561 260 920 21 134 21
147 24 2058 l3 1922 -1867 -1 c-1428 -1 -1896 -4 -1988 -14z m-850 -1696 c114
-21 196 -83 247 -187 l33 -67 5 -1160 6 -1160 22 -84 c46 -173 135 -325 259
-442 168 -158 394 -238 638 -226 416 21 746 284 857 682 l23 80 5 1165 c6
1315 -1 1213 86 1309 58 65 125 93 219 94 126 0 216 -43 274 -129 65 -99 62
-31 59 -1330 -4 -1172 -4 -1180 -26 -1291 -67 -338 -199 -592 -426 -818 -218
-218 -457 -344 -769 -407 -99 -20 -140 -23 -357 -23 -215 1 -258 4 -347 23
-320 69 -558 196 -774 411 -261 262 -400 572 -439 981 -7 77 -10 479 -8 1225
l3 1110 28 57 c47 97 146 168 257 187 30 5 58 9 61 10 3 0 32 -4 64 -10z"/>
</g>
</svg>
